<svg xmlns="http://www.w3.org/2000/svg" width="68" height="68" fill="none"><rect width="56" height="56" fill="#F9D15C" rx="28"/><path fill="#222" d="M26.766 21.953h26.468c.905 0 1.641.736 1.641 1.64 0 .905-.736 1.641-1.64 1.641H43.28a4.927 4.927 0 0 0-4.922 4.922v1.64h3.282v-1.64c0-.904.736-1.64 1.64-1.64h9.953a4.927 4.927 0 0 0 4.922-4.922 4.927 4.927 0 0 0-4.922-4.922H26.766c-.905 0-1.641-.736-1.641-1.64V15.39h-3.281v1.64a4.927 4.927 0 0 0 4.922 4.922M56.264 51.484h5.173A6.57 6.57 0 0 0 68 44.922a6.57 6.57 0 0 0-6.562-6.563h-3.282v-3.28H21.844v8.312a18.04 18.04 0 0 0 3.997 11.375H12v3.28h7.19l3.28 6.563h35.06l3.28-6.562H68v-3.281H54.159a18 18 0 0 0 2.105-3.282m5.173-9.843a3.285 3.285 0 0 1 3.282 3.28 3.285 3.285 0 0 1-3.281 3.282h-3.924c.421-1.546.642-3.162.642-4.812v-1.75zm-36.312 1.75v-5.032h29.75v5.032c0 4.423-1.922 8.537-5.291 11.375H30.416a14.79 14.79 0 0 1-5.291-11.375m30.377 17.937H24.498l-1.64-3.281h34.284z"/></svg>