<svg xmlns="http://www.w3.org/2000/svg" width="68" height="68" fill="none"><rect width="56" height="56" fill="#F9D15C" rx="28"/><g fill="#222" clip-path="url(#a)"><path d="M39.89 63.023a3.61 3.61 0 1 0 0-7.219 3.61 3.61 0 0 0 0 7.22M67.413 28.938C60.223 21.225 50.488 16.977 40 16.977s-20.223 4.248-27.413 11.961a2.188 2.188 0 0 0 3.2 2.983C22.14 25.105 30.74 21.351 40 21.351s17.86 3.754 24.212 10.57c.431.462 1.015.696 1.6.696a2.188 2.188 0 0 0 1.6-3.679"/><path d="M59.38 37.972c-5.313-5.354-12.196-8.303-19.38-8.303-7.185 0-14.068 2.949-19.38 8.303a2.187 2.187 0 1 0 3.105 3.082c4.485-4.52 10.265-7.01 16.275-7.01s11.789 2.49 16.275 7.01c.428.43.99.646 1.553.646a2.188 2.188 0 0 0 1.553-3.729M50.626 47.032c-2.846-2.82-6.925-4.571-10.646-4.571h-.161c-3.722 0-7.801 1.751-10.647 4.57a2.188 2.188 0 0 0 3.08 3.109c2.025-2.007 4.995-3.304 7.567-3.304h.16c2.572 0 5.542 1.297 7.568 3.304a2.187 2.187 0 1 0 3.08-3.108"/></g><defs><clipPath id="a"><path fill="#fff" d="M12 12h56v56H12z"/></clipPath></defs></svg>