<svg xmlns="http://www.w3.org/2000/svg" width="68" height="68" fill="none"><rect width="56" height="56" fill="#F9D15C" rx="28"/><path fill="#222" d="M64.53 18.839H29.125a3.474 3.474 0 0 0-3.47 3.47v3.088L22.3 22.04l-5.685 5.685 2.58 2.58L12 41.608l7.307 11.421h-2.76a3.89 3.89 0 0 0-3.883 3.884v4.248h19.36v-4.248a3.89 3.89 0 0 0-3.884-3.884h-4.886l-7.31-11.425 4.822-7.572a8.43 8.43 0 0 0 2.449 6.56l1.38 1.38 1.06-1.06v7.395a3.474 3.474 0 0 0 3.47 3.47h9.924l-.586 6.059h-2.744v3.325h22.218v-3.325h-2.745l-.586-6.06h9.924a3.474 3.474 0 0 0 3.47-3.47V22.31a3.474 3.474 0 0 0-3.47-3.47M28.14 56.355c.308 0 .559.25.559.558v.923h-12.71v-.923c0-.308.25-.558.559-.558zm-4.546-28.069-.091.08a8 8 0 0 0-.283.27l-.005.005-.006.005a9 9 0 0 0-.268.283l-.082.092-.116.13-1.425-1.425.982-.982 1.426 1.425q-.067.058-.132.117m1.133 8.852a5.15 5.15 0 0 1-.155-4.745l.015-.031.079-.155.022-.04q.04-.074.08-.144l.03-.047q.04-.067.082-.135l.036-.053q.04-.063.084-.125l.046-.061q.04-.057.083-.113l.06-.075.076-.095.086-.098.06-.067a5 5 0 0 1 .335-.334l.054-.047q.067-.06.135-.116l.06-.048.139-.107.057-.042a5 5 0 0 1 .372-.245l.033-.02a5.1 5.1 0 0 1 1.356-.551l.022-.006a5 5 0 0 1 .223-.049l.019-.004q.114-.021.23-.038l.013-.002q.116-.017.233-.028l.011-.002q.117-.01.233-.016h.014a5 5 0 0 1 .228-.006h.02q.322 0 .642.04l.014.002a5 5 0 0 1 .569.108l.093.023q.126.034.25.073l.129.045a5 5 0 0 1 .43.173q.071.032.142.067.068.033.133.07.057.029.112.059l-3.492 3.492zm17.077 20.698.586-6.06h8.876l.586 6.06zm22.87-9.53c0 .08-.064.145-.144.145H29.125a.145.145 0 0 1-.144-.144V45.21h35.694zm0-6.421H28.982v-4.298l7.566-7.567-1.38-1.38a8.4 8.4 0 0 0-2.854-1.875l-.027-.01a8 8 0 0 0-.357-.132l-.105-.034a8 8 0 0 0-.28-.087l-.18-.049q-.105-.028-.208-.053-.123-.03-.247-.054l-.142-.029a9 9 0 0 0-.302-.05l-.088-.014a8 8 0 0 0-.772-.074h-.015a9 9 0 0 0-.61-.01v-3.86c0-.08.065-.145.145-.145H64.53c.08 0 .145.065.145.145z"/></svg>