<svg xmlns="http://www.w3.org/2000/svg" width="68" height="68" fill="none"><rect width="56" height="56" fill="#F9D15C" rx="28"/><path fill="#222" d="M41.578 22.74h-6.505c-.92 0-1.64.752-1.64 1.64v23.364a1.64 1.64 0 0 0 3.28 0v-8.516c1.523-.009 3.751-.02 4.865-.02a8.38 8.38 0 0 0 5.871-2.396c1.607-1.565 2.492-3.638 2.492-5.838s-.885-4.273-2.492-5.838a8.38 8.38 0 0 0-5.87-2.396m0 13.187c-1.108 0-3.304.01-4.829.02-.028-5.11-.012-3.392-.03-9.926h4.86c2.754 0 5.08 2.268 5.08 4.953s-2.326 4.953-5.08 4.953"/><path fill="#222" d="M57.015 19.048A23.9 23.9 0 0 0 40 12a23.9 23.9 0 0 0-17.015 7.048c-13.212 13.212-6.937 35.987 11.327 40.4v5.818A2.737 2.737 0 0 0 37.047 68h5.906a2.737 2.737 0 0 0 2.734-2.734v-5.819c18.282-4.417 24.53-27.197 11.328-40.4m-14.609 45.67h-4.812v-4.712c1.595.158 3.216.158 4.812 0zm1.346-8.212c-12.65 2.309-24.533-7.338-24.533-20.443 0-11.46 9.322-20.782 20.78-20.782 11.46 0 20.782 9.323 20.782 20.782 0 10.031-7.144 18.64-17.029 20.443"/></svg>