<svg xmlns="http://www.w3.org/2000/svg" width="16" height="16" fill="none"><path fill="url(#a)" d="M8.003 0c-3.34 0-4.317.003-4.507.02-.685.056-1.112.164-1.577.396C1.561.593 1.28.8 1 1.089q-.76.79-.926 1.946c-.055.374-.07.45-.073 2.362-.002.637 0 1.475 0 2.6 0 3.338.003 4.314.02 4.504.055.667.16 1.087.38 1.546a3.37 3.37 0 0 0 2.185 1.784c.33.085.694.132 1.162.154.198.009 2.217.015 4.238.015 2.02 0 4.04-.002 4.234-.012.541-.026.856-.068 1.203-.158a3.35 3.35 0 0 0 2.185-1.788c.217-.448.327-.884.377-1.516.01-.138.015-2.336.015-4.531 0-2.196-.005-4.39-.016-4.527-.05-.643-.16-1.075-.384-1.532a3.2 3.2 0 0 0-.685-.938Q14.122.24 12.967.073c-.374-.054-.448-.07-2.36-.073z"/><path fill="url(#b)" d="M8.003 0c-3.34 0-4.317.003-4.507.02-.685.056-1.112.164-1.577.396C1.561.593 1.28.8 1 1.089q-.76.79-.926 1.946c-.055.374-.07.45-.073 2.362-.002.637 0 1.475 0 2.6 0 3.338.003 4.314.02 4.504.055.667.16 1.087.38 1.546a3.37 3.37 0 0 0 2.185 1.784c.33.085.694.132 1.162.154.198.009 2.217.015 4.238.015 2.02 0 4.04-.002 4.234-.012.541-.026.856-.068 1.203-.158a3.35 3.35 0 0 0 2.185-1.788c.217-.448.327-.884.377-1.516.01-.138.015-2.336.015-4.531 0-2.196-.005-4.39-.016-4.527-.05-.643-.16-1.075-.384-1.532a3.2 3.2 0 0 0-.685-.938Q14.122.24 12.967.073c-.374-.054-.448-.07-2.36-.073z"/><path fill="#fff" d="M7.999 2.092c-1.604 0-1.806.007-2.436.036s-1.058.128-1.433.274c-.389.151-.718.353-1.047.682a2.9 2.9 0 0 0-.681 1.046c-.147.376-.246.805-.275 1.434-.028.63-.035.832-.035 2.436s.007 1.806.035 2.436c.03.629.129 1.058.275 1.434.15.389.353.718.681 1.047s.658.53 1.046.681c.376.147.805.246 1.434.275.63.029.831.036 2.435.036s1.805-.007 2.435-.036c.629-.029 1.059-.128 1.434-.274a2.9 2.9 0 0 0 1.046-.682 2.9 2.9 0 0 0 .682-1.047c.145-.376.245-.805.274-1.434.029-.63.036-.831.036-2.436s-.007-1.805-.036-2.436c-.03-.629-.129-1.058-.274-1.434a2.9 2.9 0 0 0-.682-1.046 2.9 2.9 0 0 0-1.046-.682c-.377-.146-.806-.245-1.435-.274-.63-.029-.83-.036-2.435-.036zm-.53 1.065h.53c1.577 0 1.764.006 2.387.034.575.026.888.123 1.096.203.276.108.472.236.679.442s.335.404.442.68c.08.208.177.52.203 1.096.029.623.035.81.035 2.387s-.006 1.764-.035 2.387c-.026.576-.122.889-.203 1.097a1.8 1.8 0 0 1-.442.678 1.8 1.8 0 0 1-.679.442c-.208.081-.52.177-1.096.204-.623.028-.81.034-2.387.034s-1.764-.006-2.387-.034c-.576-.027-.888-.123-1.097-.204a1.8 1.8 0 0 1-.679-.442 1.8 1.8 0 0 1-.442-.679c-.08-.208-.177-.52-.203-1.097-.029-.623-.034-.81-.034-2.387 0-1.578.005-1.764.034-2.387.026-.576.122-.889.203-1.097a1.8 1.8 0 0 1 .442-.68c.207-.206.404-.334.68-.442.207-.08.52-.177 1.096-.203.545-.025.756-.032 1.857-.033zm3.683.981a.709.709 0 1 0 0 1.418.709.709 0 0 0 0-1.418m-3.153.828A3.034 3.034 0 1 0 8 11.034 3.034 3.034 0 0 0 8 4.966m0 1.065a1.97 1.97 0 1 1 0 3.938 1.97 1.97 0 0 1 0-3.938"/><defs><radialGradient id="a" cx="0" cy="0" r="1" gradientTransform="matrix(0 -15.8572 14.7484 0 4.25 17.232)" gradientUnits="userSpaceOnUse"><stop stop-color="#FD5"/><stop offset=".1" stop-color="#FD5"/><stop offset=".5" stop-color="#FF543E"/><stop offset="1" stop-color="#C837AB"/></radialGradient><radialGradient id="b" cx="0" cy="0" r="1" gradientTransform="rotate(78.681 -2.043 -1.059)scale(7.08823 29.218)" gradientUnits="userSpaceOnUse"><stop stop-color="#3771C8"/><stop offset=".128" stop-color="#3771C8"/><stop offset="1" stop-color="#60F" stop-opacity="0"/></radialGradient></defs></svg>