<svg xmlns="http://www.w3.org/2000/svg" width="16" height="16" fill="none"><g clip-path="url(#a)"><path fill="#FBBB00" d="m3.546 9.669-.557 2.079-2.036.043A7.96 7.96 0 0 1 0 8a7.96 7.96 0 0 1 .895-3.68l1.812.333.794 1.801a4.76 4.76 0 0 0 .045 3.215"/><path fill="#518EF8" d="M15.86 6.505a8 8 0 0 1-.035 3.165 8 8 0 0 1-2.817 4.569l-2.283-.117-.323-2.017a4.77 4.77 0 0 0 2.052-2.435H8.176V6.505h7.684"/><path fill="#28B446" d="M13.008 14.238A7.97 7.97 0 0 1 8 16 8 8 0 0 1 .954 11.79L3.546 9.67a4.757 4.757 0 0 0 6.856 2.436z"/><path fill="#F14336" d="m13.106 1.842-2.591 2.121A4.758 4.758 0 0 0 3.5 6.454L.895 4.322A8 8 0 0 1 8 0c1.941 0 3.72.691 5.106 1.842"/></g><defs><clipPath id="a"><path fill="#fff" d="M0 0h16v16H0z"/></clipPath></defs></svg>