<svg xmlns="http://www.w3.org/2000/svg" width="91" height="40" fill="none"><path fill="#000" d="M50.516 34H48.64v-5.148h-5.266V34h-1.867V22.578h1.867v4.672h5.266v-4.672h1.875zM60.992 29.664q0 2.118-1.086 3.305-1.085 1.187-3.023 1.187-1.212 0-2.14-.547a3.6 3.6 0 0 1-1.43-1.57q-.5-1.023-.5-2.375 0-2.102 1.078-3.281 1.077-1.18 3.039-1.18 1.876 0 2.968 1.211 1.094 1.203 1.094 3.25m-6.289 0q0 2.992 2.211 2.992 2.188 0 2.188-2.992 0-2.96-2.204-2.96-1.155 0-1.68.765-.515.765-.515 2.195M66.328 32.672q.672 0 1.344-.211v1.383a3.6 3.6 0 0 1-.79.218 5 5 0 0 1-.991.094q-2.61 0-2.61-2.75V26.75h-1.18v-.812l1.266-.672.625-1.828h1.133v1.921h2.46v1.391h-2.46v4.625q0 .664.328.984.336.313.875.313M73.18 34.156q-2.016 0-3.157-1.172-1.132-1.18-1.132-3.242 0-2.116 1.054-3.328 1.055-1.21 2.899-1.21 1.71 0 2.703 1.038.992 1.04.992 2.86v.992h-5.758q.04 1.257.68 1.937.64.672 1.805.672.765 0 1.421-.14.665-.149 1.422-.485v1.492a5.6 5.6 0 0 1-1.359.453 8.3 8.3 0 0 1-1.57.133m-.336-7.562q-.876 0-1.406.554-.525.555-.626 1.618h3.922q-.015-1.07-.515-1.618-.5-.555-1.375-.554M80.46 34h-1.835V21.844h1.836zM90.758 29.664q0 2.118-1.086 3.305t-3.024 1.187q-1.21 0-2.14-.547a3.6 3.6 0 0 1-1.43-1.57q-.5-1.023-.5-2.375 0-2.102 1.078-3.281t3.04-1.18q1.875 0 2.968 1.211 1.094 1.203 1.094 3.25m-6.29 0q0 2.992 2.212 2.992 2.187 0 2.187-2.992 0-2.96-2.203-2.96-1.155 0-1.68.765-.515.765-.515 2.195"/><path fill="#24AB70" d="m11 0 10 6v34H11z"/><path fill="#222" d="m21 15 11 6v19H21z"/><path fill="#F95F5F" d="m0 6 11 6.58V40H0z"/></svg>