<svg xmlns="http://www.w3.org/2000/svg" width="116" height="26" fill="none"><path fill="#EB0029" d="M17.276.95v24.1h7.14V6.305zm-2.828 2.114V25.05h1.485V1.937zM11.62 25.05h1.485V4.12L11.62 5.178zm-2.828 0h1.485V6.235L8.792 7.363zM25.76 11.732V25.05h7.142v-7.963zM5.964 13.846V25.05h1.485V12.789zM3.136 25.05H4.62V14.903L3.136 15.96zm-2.828 0h1.484v-8.033L.308 18.144z"/><path fill="#717271" d="M51.283 14.339c-2.12 0-3.463-1.198-3.463-3.524v-4.51h1.766v4.51c0 1.269.637 1.974 1.768 1.974 1.06 0 1.697-.705 1.697-1.973v-4.51h1.768v4.44c0 2.465-1.415 3.593-3.536 3.593m8.766 0c-1.2 0-2.402-.423-3.321-1.268l.99-1.198c.706.563 1.484.916 2.403.916.706 0 1.13-.282 1.13-.705v-.07c0-.423-.28-.635-1.624-.987-1.556-.423-2.617-.916-2.617-2.466 0-1.48 1.13-2.396 2.758-2.396 1.203 0 2.19.352 2.968.986l-.918 1.34c-.635-.494-1.344-.776-2.05-.776-.637 0-.99.282-.99.704 0 .494.353.705 1.696 1.058 1.628.422 2.546.986 2.546 2.396 0 1.62-1.203 2.466-2.97 2.466m10.323-.07v-3.242H67.12v3.242h-1.766V6.306h1.766v3.1h3.252v-3.1h1.768v7.962zm30.402 0-3.746-5.004v5.003h-1.697V6.307h1.626l3.748 5.073V6.306h1.697v7.962zm-34.29 10.78-2.474-3.382-.918.987v2.396h-1.768v-7.963h1.768v3.523l3.252-3.523h2.12L65.21 20.47l3.395 4.58zm4.1 0v-7.962h5.94v1.55H72.28v1.621h3.749v1.55h-3.75V23.5h4.315v1.55zm16.968 0h1.697v-7.962h-1.697zm4.315 0v-7.962h5.939v1.55h-4.171v1.621h3.674v1.55h-3.674V23.5h4.24v1.55zm8.626 0v-7.962h1.765V23.5h3.962v1.55zm10.957 0h-3.112v-7.962h3.112c2.546 0 4.243 1.762 4.243 3.946v.07c0 2.256-1.697 3.947-4.243 3.947m2.405-3.945c0-1.41-.99-2.396-2.405-2.396h-1.343V23.5h1.343c1.415 0 2.405-.987 2.405-2.396M42.66 12.789c-1.487 0-2.474-1.128-2.474-2.467v-.07c0-1.34.918-2.467 2.33-2.467.779-.07 1.487.282 1.981.846l1.131-1.339c-.778-.704-1.837-1.198-3.111-1.127-2.475 0-4.24 1.902-4.171 4.157.071 2.326 1.84 4.087 4.314 4.017 1.272 0 2.403-.564 3.11-1.41l-1.201-1.127c-.425.564-1.131.916-1.909.986m38.389-6.483h1.909v7.962H81.26V9.054l-2.262 3.382h-.07l-2.264-3.382v5.215H75.04V6.306h1.838l2.121 3.312zm7.213 0-3.395 7.962h1.84l.706-1.832h3.393l.708 1.832h1.838l-3.393-7.962zm-.212 4.58 1.06-2.537 1.061 2.537zm-33.726 6.2-3.394 7.964h1.769l.777-1.762H56.8l.776 1.762h1.768l-3.393-7.963zm-.282 4.652 1.06-2.607 1.061 2.607zm26.797-3.03v1.69h3.746v1.622h-3.746v3.03H79.07v-7.963h6.08v1.62zm-31.819-1.62-1.838 5.567-1.837-5.567h-1.7l-1.836 5.567-1.838-5.567h-1.909l2.897 7.963h1.768l1.768-5.426 1.837 5.426h1.697l2.9-7.963zm64.55-4.792.919-1.057-1.059-1.127-.85.916-.99-1.198c.637-.352 1.062-1.057 1.062-1.762-.072-1.127-.919-1.902-2.05-1.902a1.98 1.98 0 0 0-1.415.563 1.97 1.97 0 0 0-.565 1.41c.071.634.424 1.127.706 1.48-.919.352-1.625 1.339-1.556 2.325a2.63 2.63 0 0 0 2.617 2.466c.778 0 1.626-.423 2.191-1.057l.709.916h2.049zm-1.909-.07c-.424.493-.847.704-1.271.704-.566 0-1.062-.422-1.062-1.056-.07-.353.212-.846.99-1.199zm-.99-3.312c-.212-.212-.494-.493-.565-.775 0-.282.14-.564.565-.634.353 0 .566.281.566.634 0 .352-.354.634-.566.775"/></svg>