<svg xmlns="http://www.w3.org/2000/svg" width="116" height="28" fill="none"><path fill="#4B77A9" d="M59.744 15.773 55.367 4.767 51.014 15.7q4.367-.142 8.73.073m36.332 11.16c-9.382-4.08-19.932-7.1-32.33-8.12l3.776 9.167H64.6l-3.726-9.364a113 113 0 0 0-10.983-.088L46.13 27.98h-2.924l3.827-9.3c-13.15.862-24.348 3.978-34.185 8.25v-.577c6.565-3.664 13.057-6.4 20.066-8.186v-5.628L25.021.422h2.932l6.264 10.068L40.484.423h2.929l-7.892 12.116-.002 5.01c4.012-.87 8.204-1.446 12.688-1.718L54.712.02h1.304l6.557 15.935c4.401.352 8.527 1 12.482 1.947V2.53h-6.45V.422h15.567V2.53h-6.447v16.065c6.36 1.776 12.327 4.36 18.35 7.762zM106.505.422H90.941V2.53h6.449v19h2.668v-19h6.447zm-89.351 21.11-2.669.002V11.117H2.975v10.415H.308V.422h2.669v8.59h11.51V.421h2.668zm96.392-19.466q-.192-.112-.617-.112h-.435V3.01h.46c.219 0 .378-.024.488-.066a.455.455 0 0 0 .3-.454q-.001-.316-.196-.425m-.55-.456q.537 0 .791.102c.3.125.449.373.449.736q0 .387-.282.574a1.1 1.1 0 0 1-.421.138c.232.036.395.13.502.284.095.132.149.29.155.452v.21q0 .104.007.215 0 .08.025.154l.019.036h-.476l-.008-.028-.006-.035-.012-.094v-.23q-.002-.501-.275-.663c-.111-.061-.296-.094-.569-.094h-.401V4.51h-.514V1.609zm-1.554-.15a2.2 2.2 0 0 0-.663 1.61q0 .95.659 1.62a2.17 2.17 0 0 0 1.608.67 2.18 2.18 0 0 0 1.61-.67q.661-.669.661-1.62a2.2 2.2 0 0 0-.661-1.611 2.2 2.2 0 0 0-1.61-.666 2.2 2.2 0 0 0-1.603.666zm3.473 3.48a2.52 2.52 0 0 1-1.869.779 2.53 2.53 0 0 1-1.87-.778 2.57 2.57 0 0 1-.765-1.873q0-1.09.774-1.865a2.54 2.54 0 0 1 1.861-.772q1.099 0 1.869.773a2.53 2.53 0 0 1 .776 1.864q.001 1.095-.776 1.873"/></svg>