<svg xmlns="http://www.w3.org/2000/svg" width="116" height="24" fill="none"><path fill="#EE2841" d="M112.724 7.578a.194.194 0 0 1-.192-.193V6.087h-.371a.17.17 0 0 1-.168-.17.17.17 0 0 1 .168-.17h1.124a.17.17 0 0 1 0 .34h-.372v1.298a.193.193 0 0 1-.189.193m2.776 0a.194.194 0 0 1-.189-.193v-1.13l-.483 1.252a.11.11 0 0 1-.102.07.11.11 0 0 1-.101-.07l-.483-1.252v1.13a.19.19 0 0 1-.186.193.196.196 0 0 1-.194-.193V6.043c0-.174.14-.315.31-.315.135 0 .246.085.292.205l.362.944.366-.944a.31.31 0 0 1 .289-.205c.173 0 .311.141.311.315v1.342a.194.194 0 0 1-.192.193M13.955 5.177c0-.65.202-1.25.544-1.75a2.474 2.474 0 0 0-1.785 2.37V7.78l1.24.063zm-1.24 13.647c0 1.126.755 2.067 1.785 2.37-.343-.5-.545-1.1-.545-1.75v-3.722h-1.24zm3.101-3.102h-1.24v3.723c0 1.126.755 2.067 1.784 2.37a3.1 3.1 0 0 1-.544-1.75zm0-11.166c0-.649.202-1.25.544-1.75a2.474 2.474 0 0 0-1.784 2.37v2.699l1.24.062zM1.829 3.762A3.09 3.09 0 0 0 .308 6.417v11.786c0 1.134.614 2.115 1.521 2.656a3.7 3.7 0 0 1-.281-1.415V5.176c0-.5.101-.977.281-1.414m1.58.174c0-.5.101-.978.282-1.415a3.09 3.09 0 0 0-1.522 2.655v14.269c0 1.333.845 2.46 2.026 2.898a3.7 3.7 0 0 1-.786-2.278z"/><path fill="#EE2841" d="M18.918 2.075a2.48 2.48 0 0 0-2.481 2.48v4.033l-6.203-.31V3.935a3.102 3.102 0 0 0-6.204 0v16.13a3.101 3.101 0 0 0 6.203 0v-4.963h6.204v4.963a2.48 2.48 0 1 0 4.962 0V4.555a2.48 2.48 0 0 0-2.481-2.48m21.419 15.107V12.59h-6.701v4.593c0 .49-.4.908-.89.908a.926.926 0 0 1-.926-.908V6.704c0-.49.418-.907.908-.907a.91.91 0 0 1 .908.907v4.268h6.7V6.704a.91.91 0 0 1 1.816 0v10.478a.91.91 0 0 1-.907.908.91.91 0 0 1-.908-.908m3.099-3.577c0-2.524 1.708-4.594 4.43-4.594 2.742 0 4.431 2.07 4.431 4.594 0 2.543-1.689 4.612-4.43 4.612-2.723 0-4.431-2.07-4.431-4.612m7.155 0c0-1.653-.963-3.142-2.724-3.142-1.744 0-2.723 1.489-2.723 3.142 0 1.67.979 3.16 2.723 3.16 1.76 0 2.724-1.49 2.724-3.16M61.797 9.01c2.634 0 4.268 2.052 4.268 4.358 0 .49-.346.78-.964.78h-5.974c.127 1.489 1.218 2.725 2.979 2.725.744 0 1.526-.237 2.179-.71.09-.071.218-.089.364-.089a.65.65 0 0 1 .653.653c0 .235-.11.417-.29.545-.873.635-1.908.944-3.07.944-2.614 0-4.54-1.852-4.54-4.613 0-2.541 1.835-4.593 4.395-4.593m-2.687 3.96h5.357c-.036-1.163-.818-2.615-2.67-2.615-1.761 0-2.598 1.416-2.687 2.615m7.995 4.303V6.613c0-.453.363-.817.818-.817.435 0 .816.364.816.817v10.66c0 .454-.38.818-.816.818a.81.81 0 0 1-.818-.818m2.685-.617c0-.4.309-.709.708-.709.146 0 .29.055.4.127.672.49 1.543.835 2.469.835 1.234 0 1.888-.508 1.888-1.253 0-.871-.998-1.161-2.125-1.415-1.488-.346-3.23-.746-3.23-2.634 0-1.397 1.197-2.596 3.34-2.596 1.217 0 2.18.362 2.924.907.162.127.29.309.29.546 0 .361-.31.67-.671.67a.63.63 0 0 1-.364-.127c-.562-.416-1.325-.67-2.16-.67-1.108 0-1.799.435-1.799 1.143 0 .763.945 1.017 2.034 1.271 1.526.345 3.342.763 3.342 2.778 0 1.507-1.235 2.689-3.541 2.689-1.218 0-2.306-.31-3.196-.981a.72.72 0 0 1-.309-.581m9.19-.727c.617 0 1.143.51 1.143 1.126 0 .618-.526 1.144-1.143 1.144-.618 0-1.127-.526-1.127-1.144s.51-1.126 1.127-1.126m9.628-2.324c0-2.524 1.706-4.594 4.43-4.594 2.743 0 4.432 2.07 4.432 4.594 0 2.543-1.69 4.612-4.431 4.612-2.725 0-4.431-2.07-4.431-4.612m7.155 0c0-1.653-.963-3.142-2.724-3.142-1.744 0-2.725 1.489-2.725 3.142 0 1.67.981 3.16 2.725 3.16 1.76 0 2.724-1.49 2.724-3.16m15.228-1.943v5.612a.83.83 0 0 1-.835.816.81.81 0 0 1-.799-.816v-5.122c0-1.017-.455-1.507-1.526-1.507-.89 0-1.761 1-2.18 1.637v4.992a.8.8 0 0 1-.238.578.82.82 0 0 1-.578.238.826.826 0 0 1-.818-.816v-5.122c0-1.017-.435-1.507-1.543-1.507-.854 0-1.706 1.061-2.143 1.696v4.933a.825.825 0 0 1-.817.816.814.814 0 0 1-.817-.816V9.955a.81.81 0 0 1 .799-.817.83.83 0 0 1 .835.817v.508c.363-.545 1.526-1.452 2.832-1.452 1.327 0 2.108.689 2.38 1.634.508-.818 1.695-1.634 2.984-1.634 1.617 0 2.464.89 2.464 2.65"/><path fill="#EE2841" d="M85.021 9.01c1.254 0 2.125.4 2.797 1.017a.78.78 0 0 1 .254.546.733.733 0 0 1-1.218.562c-.507-.472-1.07-.672-1.76-.672-1.725 0-2.833 1.325-2.833 3.141s1.109 3.102 2.833 3.16c1.163.041 2.336-.806 3.278-2.293.117-.185.288-.528.43-.707.266-.337.457-.176.614-.012.288.301.286 1.017.098 1.369-.53.988-.975 1.448-1.481 1.942-.705.684-1.758 1.153-3.012 1.153-2.65 0-4.466-1.979-4.466-4.613 0-2.632 1.815-4.593 4.466-4.593M58.57 16.654c0 .31-.884 1-1.52 1.309-.362.175-.727.253-1.253.253-1.38 0-2.088-.78-2.088-2.16v-5.393h-.836a.74.74 0 0 1-.727-.727c0-.38.347-.708.727-.708h.836v-1.67a.814.814 0 0 1 .817-.818c.436 0 .817.363.817.818v1.67h1.145c.398 0 .725.327.725.708a.73.73 0 0 1-.725.727h-1.145v5.03c0 .617.291 1.071.854 1.071.999 0 1.785-1.552 2.228-1.552.417 0 .145 1.043.145 1.442"/></svg>