<svg xmlns="http://www.w3.org/2000/svg" width="98" height="68" fill="none"><path fill="#213E99" d="M58.363 24.702c0 1.224-.311 2.643-1.21 3.9h2.54V8.989h-8.118V17c4.39 1.36 6.788 4.174 6.788 7.7"/><path fill="#213E99" d="M44.33 16.303c1.83 0 3.535.428 4.84.773-2.762-.486-7.044.217-9.256 1.962v9.564h8.122V17.72c1.393.251 2.72.79 3.894 1.58v9.3h1.765c-1.658 1.875-4.765 3.016-7.442 2.596v.393c7.717.61 10.987-3.053 10.987-7.172 0-4.852-4.55-7.69-9.204-8.266V8.989h-8.122v7.243c-5.257 1.054-10.405 4.176-10.405 9.352 0 7.966 11.128 12.9 20.821 12.9 14.72 0 26.046-7.111 26.046-17.102 0-12.089-16.355-20.715-29.2-20.715-14.719 0-25.557 9.35-25.557 19.342 0 5.17 2.906 9.506 6.567 12.528l.277-.187c-2.899-2.409-5.515-6.164-5.515-11.324.765-10.932 14.239-17.09 26.23-17.09 8.478 0 23.712 1.96 23.712 16.14 0 7.393-7.902 17.01-24.502 17.01-8.5 0-15.101-4.55-15.101-11.095 0-5.662 4.435-9.688 11.043-9.688M12.882 66.937V65.82h2.847v-9.66H8.127v9.66h2.92v1.117H.562V65.82h2.664V46.148H.563V45.03h10.483v1.118h-2.92v8.718h7.603v-8.718h-2.847V45.03h10.379v1.118h-2.669V65.82h2.669v1.117zM27.28 45.03h4.757v2.596H27.28zm-2.34 21.907V65.82h2.557V52.347H24.94V51.23h7.277v14.59h2.38v1.117zm10.681 0V65.82h2.63V43.265h-2.63v-1.114h7.385V65.82h2.485v1.117zm17.273 0c-2.593 0-3.997-1.333-3.997-3.388V52.347h-2.56V51.23h2.56v-6.231c1.442 0 2.953.032 4.43 0v6.231h3.676v1.118h-3.675V65.82h3.749v1.117zm22.48-8.216c-.396-5.945-5.366-7.997-8.792-7.997-3.852 0-9.04 2.413-9.04 8.249 0 4.218 3.097 8.36 9.15 8.36 5.44 0 7.677-3.64 8.215-5.117.431-1.08.54-2.342.467-3.495m-8.792 7.71c-1.656 0-2.664-.827-3.134-1.729-.287-.54-.683-1.33-.683-5.8 0-3.315.071-7.134 3.781-7.134 1.478 0 2.593.612 3.208 1.984.215.502.47 1.008.502 5.005.036 3.678.036 7.675-3.674 7.675m21.49.506V65.82h2.09v-9.26c0-2.09 0-4.142-2.306-4.142-1.298 0-3.423 1.295-3.929 3.423-.18.648-.145 1.334-.145 3.06v6.919h2.377v1.117h-9.652V65.82h2.557V52.347h-2.557V51.23h7.275v2.377c.793-1.008 1.443-1.732 2.992-2.341a7.4 7.4 0 0 1 2.847-.577c.287 0 1.15 0 2.158.287 3.028.899 3.173 3.208 3.173 4.866v9.979h2.485v1.117z"/></svg>