<svg xmlns="http://www.w3.org/2000/svg" width="116" height="54" fill="none"><path fill="#0E7755" d="M35.718 53.092v-.87h-3.147v-6.17h-.994v7.04zm62.207-6.212v6.212h.994V46.88h2.402v-.828h-5.798v.828zm5.425 4.638s.746.746 1.781.746c.663 0 1.201-.373 1.201-1.036 0-1.532-3.396-1.2-3.396-3.354 0-1.077.952-1.947 2.278-1.947 1.325 0 1.988.704 1.988.704l-.456.828s-.663-.62-1.532-.62c-.746 0-1.284.455-1.284 1.035 0 1.45 3.396 1.076 3.396 3.354 0 1.077-.828 1.988-2.236 1.988-1.491 0-2.32-.91-2.32-.91zM7.638 17.972H.308v20.997H2.71v-8.076h4.928c3.935 0 6.544-2.609 6.544-6.502 0-3.851-2.65-6.42-6.544-6.42M2.71 20.167h4.68c2.692 0 4.348 1.615 4.348 4.224 0 2.65-1.656 4.307-4.39 4.307H2.71zm22.613-2.195L17.62 38.969h2.526l2.36-6.585h8.035l2.361 6.585h2.526l-7.661-20.997zm4.349 12.424-6.585-.207 2.899-7.165c.248-.62.538-1.532.704-2.153.124.58.372 1.532.58 2.153zm21.288-.662c2.318-.746 3.81-2.941 3.81-5.675 0-2.526-1.202-4.597-3.231-5.466-.828-.373-1.781-.58-3.935-.58h-6.253V39.01h2.402v-8.698h4.928l4.68 8.698h2.734l-4.639-8.573c-.248-.332-.373-.58-.497-.704m1.407-5.633c0 2.485-1.49 4.017-3.893 4.017h-4.721v-7.952h3.976c1.615 0 2.278.166 2.857.497 1.16.58 1.781 1.823 1.781 3.438m21.206-6.128-5.55 8.987h-3.23v-8.987H62.39v20.997h2.402v-9.856h3.23l5.882 9.856h2.816l-6.71-11.016 6.296-9.981zM1.302 49.117v-3.065H.308v7.04h.994v-3.106h3.644v3.106h.994v-7.04h-.994v3.065zm10.685-3.19c2.03 0 3.603 1.574 3.603 3.603 0 2.071-1.574 3.686-3.603 3.686s-3.603-1.615-3.603-3.686c0-2.03 1.574-3.603 3.603-3.603m0 6.378c1.45 0 2.61-1.201 2.61-2.775 0-1.532-1.16-2.692-2.61-2.692s-2.61 1.16-2.61 2.692c0 1.574 1.202 2.775 2.61 2.775m7.455-5.425v6.212h.994V46.88h2.443v-.828h-5.84v.828zm9.691 6.212v-.87h-3.272v-2.277h2.526v-.828h-2.526V46.88h3.106v-.828h-4.1v7.04zm8.739-1.574s.745.746 1.78.746c.663 0 1.202-.373 1.202-1.036 0-1.532-3.396-1.2-3.396-3.354 0-1.077.952-1.947 2.278-1.947 1.325 0 1.988.704 1.988.704l-.456.828s-.663-.62-1.532-.62c-.746 0-1.284.455-1.284 1.035 0 1.45 3.396 1.076 3.396 3.354 0 1.077-.829 1.988-2.237 1.988-1.49 0-2.319-.91-2.319-.91zm11.431-2.236s-.912-.331-.912-1.574c0-1.16.912-1.822 2.154-1.822.373 0 .87.124.87.124l-.249.787s-.29-.041-.538-.041c-.704 0-1.243.372-1.243 1.076 0 .456.208 1.119 1.284 1.119h1.326v-.953h.952v.953h.953v.87h-.953v.952c0 1.574-.911 2.485-2.443 2.485-1.45 0-2.444-.911-2.444-2.112 0-.829.456-1.574 1.242-1.864m1.2 3.023c.912 0 1.45-.497 1.45-1.615v-.911h-1.367c-.993 0-1.573.455-1.573 1.242.041.704.62 1.284 1.49 1.284m8.782-6.253h2.153c.746 0 1.036.041 1.326.165.704.249 1.2.994 1.2 1.906 0 .91-.496 1.656-1.283 1.905 0 0 .083.083.207.331l1.49 2.733H63.26l-1.491-2.816h-1.491v2.816h-.994zm2.402 3.354c.787 0 1.242-.497 1.242-1.283 0-.539-.207-.87-.58-1.077-.207-.083-.414-.166-.952-.166h-1.118v2.526zm9.236 3.686v-.87H67.65v-2.277h2.526v-.828H67.65V46.88h3.106v-.828h-4.1v7.04zm23.814-17.519v-4.307l3.189 1.574v4.307zm4.183-2.733 3.189-1.574v4.307l-3.19 1.574zm-8.366.62v-4.306l3.189 1.573v4.308zm12.549-2.691 3.189-1.574v4.307l-3.189 1.574zm-16.732.621v-4.307l3.189 1.574v4.307zm20.915-2.733 3.189-1.574v4.307l-3.189 1.574zm-12.55 1.49V25.84l3.19 1.574v4.307zm4.184-2.691 3.189-1.574v4.307l-3.19 1.574zm-16.732 1.822v-4.266l3.189 1.574v4.307zm29.322-2.692 3.189-1.574v4.307l-3.189 1.574zm-20.956 1.49V23.77l3.189 1.573v4.308zm12.549-2.733 3.189-1.573v4.307l-3.189 1.574zm-16.732.622v-4.266l3.189 1.574v4.307zm20.915-2.692 3.189-1.574v4.307l-3.189 1.574zm-12.55 1.49v-4.307l3.19 1.574v4.307zm4.184-2.733 3.189-1.574v4.308l-3.19 1.573zm-16.732 1.864v-4.307l3.189 1.573v4.308zm29.322-2.692 3.189-1.574v4.307l-3.189 1.574zm-20.956 1.45v-4.308l3.189 1.574v4.307zm12.549-2.693 3.189-1.573v4.307l-3.189 1.574zm-16.732.622v-4.308l3.189 1.574v4.307zm20.915-2.734 3.189-1.574v4.308l-3.189 1.573zm-12.55 1.491v-4.307l3.19 1.574v4.307zm4.184-2.692 3.189-1.574v4.308l-3.19 1.573zm-8.366.621V12.96l3.189 1.574v4.307zm12.549-2.733 3.189-1.574v4.307l-3.189 1.574zm-16.732.621v-4.307l3.189 1.574v4.307zm20.915-2.692 3.189-1.574v4.308l-3.189 1.573zm-12.55 1.45V9.647l3.19 1.574v4.307zm4.184-2.692 3.189-1.574v4.307l-3.19 1.574zm-8.366.62V7.536l3.189 1.573v4.308zm12.549-2.691 3.189-1.574v4.307l-3.189 1.574zm-8.366-.621V4.22l3.189 1.574v4.307zm4.183-2.692 3.189-1.574V8.57l-3.19 1.574zm-3.562-2.403 3.065-1.532 3.065 1.532-3.065 1.533zm3.065-2.65-4.68 2.32v4.928L89.559 5.96v5.425l-4.183-2.07v10.809l-4.183-2.07v11.927l16.773 8.366v5.094h.994v-5.177l16.774-8.366V17.971l-4.183 2.071V9.274l-4.183 2.07V5.962l-4.183 2.07V3.104zM73.407 51.518s.745.746 1.78.746c.663 0 1.202-.373 1.202-1.036 0-1.532-3.396-1.2-3.396-3.354 0-1.077.952-1.947 2.278-1.947 1.325 0 1.987.704 1.987.704l-.455.828s-.663-.62-1.532-.62c-.746 0-1.284.455-1.284 1.035 0 1.45 3.396 1.076 3.396 3.354 0 1.077-.829 1.988-2.237 1.988-1.49 0-2.32-.91-2.32-.91zm9.567-5.591c2.03 0 3.603 1.574 3.603 3.603 0 2.071-1.574 3.686-3.603 3.686s-3.603-1.615-3.603-3.686c0-2.03 1.573-3.603 3.603-3.603m0 6.378c1.45 0 2.609-1.201 2.609-2.775 0-1.532-1.16-2.692-2.61-2.692s-2.608 1.16-2.608 2.692c0 1.574 1.16 2.775 2.609 2.775m6.046-6.253h2.154c.746 0 1.035.041 1.325.165.705.249 1.202.994 1.202 1.906 0 .91-.497 1.656-1.284 1.905 0 0 .082.083.207.331l1.49 2.733h-1.118l-1.49-2.816h-1.492v2.816h-.993zm2.403 3.354c.787 0 1.242-.497 1.242-1.283 0-.539-.207-.87-.58-1.077-.207-.083-.414-.166-.952-.166h-1.118v2.526z"/></svg>