<svg width="92" height="40" fill="none" xmlns="http://www.w3.org/2000/svg"><path d="M50.516 34H48.64v-5.148h-5.266V34h-1.867V22.578h1.867v4.672h5.266v-4.672h1.875V34Zm10.476-4.336c0 1.412-.362 2.513-1.086 3.305-.724.791-1.731 1.187-3.023 1.187-.808 0-1.521-.182-2.14-.547a3.61 3.61 0 0 1-1.43-1.57c-.334-.682-.5-1.474-.5-2.375 0-1.401.359-2.495 1.078-3.281.718-.787 1.731-1.18 3.039-1.18 1.25 0 2.24.404 2.968 1.211.73.802 1.094 1.885 1.094 3.25Zm-6.289 0c0 1.995.737 2.992 2.211 2.992 1.458 0 2.188-.997 2.188-2.992 0-1.974-.735-2.96-2.204-2.96-.77 0-1.33.254-1.68.765-.343.51-.515 1.242-.515 2.195Zm11.625 3.008c.448 0 .896-.07 1.344-.211v1.383a3.578 3.578 0 0 1-.79.218 5.13 5.13 0 0 1-.991.094c-1.74 0-2.61-.916-2.61-2.75V26.75h-1.18v-.813l1.266-.671.625-1.828h1.133v1.921h2.46v1.391h-2.46v4.625c0 .443.11.77.328.984.224.209.516.313.875.313Zm6.852 1.484c-1.344 0-2.396-.39-3.157-1.172-.755-.786-1.132-1.867-1.132-3.242 0-1.411.351-2.52 1.054-3.328.703-.807 1.67-1.21 2.899-1.21 1.14 0 2.041.345 2.703 1.038.661.693.992 1.646.992 2.86v.992h-5.758c.026.838.253 1.484.68 1.937.427.448 1.029.672 1.805.672.51 0 .984-.047 1.421-.14.443-.1.917-.26 1.422-.485v1.492a5.633 5.633 0 0 1-1.359.453 8.33 8.33 0 0 1-1.57.133Zm-.336-7.562c-.584 0-1.052.185-1.406.554-.35.37-.558.91-.626 1.618h3.922c-.01-.714-.182-1.253-.515-1.618-.334-.37-.792-.554-1.375-.554ZM80.46 34h-1.836V21.844h1.836V34Zm10.297-4.336c0 1.412-.362 2.513-1.086 3.305-.724.791-1.732 1.187-3.024 1.187-.807 0-1.52-.182-2.14-.547a3.61 3.61 0 0 1-1.43-1.57c-.333-.682-.5-1.474-.5-2.375 0-1.401.36-2.495 1.078-3.281.719-.787 1.732-1.18 3.04-1.18 1.25 0 2.239.404 2.968 1.211.73.802 1.094 1.885 1.094 3.25Zm-6.29 0c0 1.995.738 2.992 2.212 2.992 1.458 0 2.187-.997 2.187-2.992 0-1.974-.734-2.96-2.203-2.96-.77 0-1.33.254-1.68.765-.343.51-.515 1.242-.515 2.195Z" fill="#000"/><path d="m11 0 10 6v34H11V0Z" fill="#F9D15C"/><path d="m21 16 11 5.76V40H21V16Z" fill="#222"/><path d="m0 4 11 6.968V40H0V4Z" fill="#3771C8"/></svg>